<svg width="169" height="41" viewBox="0 0 169 41" fill="none" xmlns="http://www.w3.org/2000/svg">
<path d="M26.1531 23.2858L20.9586 10.6066L15.764 23.2858H26.1531ZM17.1046 0.273438H25.036L41.7925 39.6513H32.7998L29.2251 30.882H12.6916L9.1169 39.6513H0.347656L17.1046 0.273438Z" fill="#1C1B1B"/>
<path d="M46.9336 9.71314H55.4236V15.7455C56.28 13.6975 57.453 12.0591 58.9424 10.8302C60.4319 9.60143 62.4427 9.04288 64.9748 9.15459V18.0355H64.528C61.698 18.0355 59.4731 18.892 57.8533 20.6049C56.2335 22.3178 55.4236 24.9802 55.4236 28.5922V39.6515H46.9336V9.71314Z" fill="#1C1B1B"/>
<path d="M84.4117 40.3234C82.1775 40.3234 80.1015 39.9138 78.1839 39.0946C76.2662 38.2754 74.6185 37.1676 73.2407 35.7712C71.8629 34.3748 70.7831 32.7364 70.0011 30.8559C69.2191 28.9755 68.8281 26.974 68.8281 24.8515V24.7398C68.8281 22.6173 69.2191 20.6065 70.0011 18.7075C70.7831 16.8084 71.8629 15.1514 73.2407 13.7364C74.6185 12.3214 76.2662 11.2043 78.1839 10.3851C80.1015 9.56585 82.2147 9.15625 84.5234 9.15625C87.3534 9.15625 89.6993 9.60308 91.5612 10.4968C93.423 11.3904 95.0614 12.6193 96.4764 14.1832L91.2819 19.7687C90.3137 18.7633 89.3176 17.9627 88.2936 17.3669C87.2696 16.7712 85.9943 16.4733 84.4676 16.4733C83.3877 16.4733 82.4102 16.6874 81.5352 17.1156C80.6601 17.5438 79.8968 18.1303 79.2451 18.875C78.5935 19.6198 78.0908 20.4855 77.737 21.4723C77.3833 22.4591 77.2064 23.511 77.2064 24.6281V24.7398C77.2064 25.8942 77.3833 26.974 77.737 27.9794C78.0908 28.9848 78.6028 29.8599 79.273 30.6046C79.9433 31.3493 80.7439 31.9358 81.6748 32.364C82.6057 32.7923 83.6484 33.0064 84.8027 33.0064C86.2177 33.0064 87.4558 32.7178 88.517 32.1406C89.5783 31.5634 90.6302 30.7908 91.6729 29.8226L96.644 34.8496C95.1917 36.4508 93.5347 37.7634 91.6729 38.7874C89.811 39.8114 87.3906 40.3234 84.4117 40.3234Z" fill="#1C1B1B"/>
<path d="M113.229 34.3461C115.24 34.3461 116.851 33.8621 118.061 32.8939C119.271 31.9258 119.876 30.6597 119.876 29.0958V27.5877C119.132 27.2525 118.303 26.9826 117.391 26.7778C116.478 26.573 115.501 26.4706 114.458 26.4706C112.634 26.4706 111.2 26.8243 110.157 27.5318C109.115 28.2393 108.594 29.2633 108.594 30.6038V30.7155C108.594 31.8699 109.022 32.7636 109.878 33.3966C110.735 34.0296 111.852 34.3461 113.229 34.3461ZM110.66 40.2109C109.245 40.2109 107.914 40.0154 106.667 39.6245C105.419 39.2335 104.33 38.647 103.399 37.865C102.468 37.083 101.733 36.1242 101.193 34.9885C100.653 33.8528 100.383 32.5402 100.383 31.0507V30.939C100.383 29.3006 100.681 27.8856 101.277 26.694C101.872 25.5024 102.701 24.5156 103.762 23.7337C104.823 22.9517 106.089 22.3652 107.56 21.9742C109.031 21.5833 110.66 21.3878 112.448 21.3878C113.974 21.3878 115.305 21.4995 116.441 21.7229C117.577 21.9463 118.685 22.2442 119.765 22.6166V22.1139C119.765 20.3265 119.225 18.9674 118.145 18.0364C117.065 17.1055 115.464 16.6401 113.341 16.6401C111.703 16.6401 110.26 16.7797 109.012 17.059C107.765 17.3383 106.452 17.7386 105.075 18.2599L102.952 11.7807C104.591 11.0732 106.303 10.496 108.091 10.0492C109.878 9.60232 112.038 9.37891 114.57 9.37891C116.916 9.37891 118.917 9.6675 120.574 10.2447C122.231 10.8218 123.6 11.6503 124.68 12.7302C125.797 13.8473 126.616 15.2158 127.137 16.8356C127.659 18.4554 127.919 20.2707 127.919 22.2814V39.6524H119.709V36.4128C118.666 37.5671 117.419 38.4887 115.966 39.1776C114.514 39.8665 112.745 40.2109 110.66 40.2109Z" fill="#1C1B1B"/>
<path d="M145.343 40.1557C144.04 40.1557 142.857 40.016 141.796 39.7368C140.735 39.4575 139.822 38.9641 139.059 38.2566C138.296 37.5491 137.7 36.6275 137.272 35.4918C136.844 34.356 136.629 32.9131 136.629 31.163V16.9758H133.055V9.71464H136.629V2.0625H145.119V9.71464H152.157V16.9758H145.119V29.7666C145.119 31.7029 146.032 32.6711 147.856 32.6711C149.346 32.6711 150.742 32.3173 152.045 31.6098V38.4242C151.152 38.9455 150.165 39.3644 149.085 39.6809C148.005 39.9974 146.758 40.1557 145.343 40.1557Z" fill="#1C1B1B"/>
<path d="M156.016 33.0078H168.347V39.6527H156.016V33.0078Z" fill="#2F2D2D"/>
</svg>
