<svg width="141" height="31" viewBox="0 0 141 31" fill="none" xmlns="http://www.w3.org/2000/svg">
<path d="M19.0851 17.097L15.3914 8.08114L11.6977 17.097H19.0851ZM12.6509 0.733398H18.2908L30.206 28.7343H23.8115L21.2696 22.4986H9.51292L6.971 28.7343H0.735352L12.6509 0.733398Z" fill="#231916"/>
<path d="M33.8604 7.44568H39.8974V11.7352C40.5064 10.2789 41.3405 9.11381 42.3996 8.24003C43.4588 7.36624 44.8886 6.96907 46.6891 7.0485V13.3636H46.3714C44.359 13.3636 42.7769 13.9726 41.6251 15.1906C40.4733 16.4086 39.8974 18.3018 39.8974 20.8702V28.7343H33.8604V7.44568Z" fill="#231916"/>
<path d="M60.5109 29.2107C58.9222 29.2107 57.446 28.9194 56.0824 28.3369C54.7187 27.7544 53.5471 26.9667 52.5674 25.9737C51.5877 24.9808 50.8198 23.8157 50.2638 22.4786C49.7077 21.1414 49.4297 19.7182 49.4297 18.209V18.1295C49.4297 16.6203 49.7077 15.1904 50.2638 13.84C50.8198 12.4896 51.5877 11.3114 52.5674 10.3052C53.5471 9.299 54.7187 8.50465 56.0824 7.92212C57.446 7.3396 58.9487 7.04834 60.5903 7.04834C62.6027 7.04834 64.2708 7.36607 65.5947 8.00155C66.9187 8.63703 68.0837 9.51083 69.0899 10.6229L65.3961 14.5947C64.7077 13.8798 63.9994 13.3105 63.2713 12.8868C62.5431 12.4632 61.6362 12.2513 60.5506 12.2513C59.7827 12.2513 59.0877 12.4036 58.4654 12.7081C57.8432 13.0126 57.3004 13.4296 56.837 13.9592C56.3736 14.4887 56.0162 15.1044 55.7646 15.8061C55.5131 16.5077 55.3873 17.2557 55.3873 18.0501V18.1295C55.3873 18.9504 55.5131 19.7182 55.7646 20.4331C56.0162 21.1481 56.3803 21.7703 56.8569 22.2999C57.3335 22.8294 57.9028 23.2465 58.5647 23.551C59.2267 23.8555 59.9681 24.0077 60.7889 24.0077C61.7951 24.0077 62.6755 23.8025 63.4301 23.3921C64.1847 22.9817 64.9328 22.4323 65.6742 21.7438L69.209 25.3184C68.1764 26.457 66.9981 27.3903 65.6742 28.1185C64.3502 28.8466 62.6292 29.2107 60.5109 29.2107Z" fill="#231916"/>
<path d="M81.0051 24.9613C82.435 24.9613 83.5802 24.617 84.4407 23.9286C85.3013 23.2402 85.7315 22.3399 85.7315 21.2278V20.1554C85.202 19.9171 84.6128 19.7252 83.9641 19.5795C83.3154 19.4339 82.6203 19.3611 81.8789 19.3611C80.5815 19.3611 79.5621 19.6126 78.8207 20.1157C78.0793 20.6188 77.7086 21.347 77.7086 22.3002V22.3796C77.7086 23.2004 78.0131 23.8359 78.6221 24.2861C79.2311 24.7362 80.0254 24.9613 81.0051 24.9613ZM79.1782 29.1316C78.172 29.1316 77.2254 28.9926 76.3383 28.7146C75.4513 28.4365 74.6768 28.0195 74.0149 27.4635C73.3529 26.9074 72.83 26.2256 72.446 25.418C72.0621 24.6104 71.8701 23.6771 71.8701 22.6179V22.5385C71.8701 21.3734 72.082 20.3673 72.5056 19.52C72.9293 18.6726 73.5184 17.971 74.273 17.4149C75.0277 16.8589 75.9279 16.4418 76.9738 16.1638C78.0197 15.8858 79.1781 15.7468 80.4491 15.7468C81.5347 15.7468 82.4813 15.8262 83.2889 15.9851C84.0965 16.144 84.8842 16.3558 85.6521 16.6206V16.2631C85.6521 14.9922 85.2682 14.0257 84.5003 13.3637C83.7324 12.7018 82.5939 12.3708 81.0846 12.3708C79.9195 12.3708 78.8935 12.4701 78.0065 12.6687C77.1195 12.8673 76.1861 13.1519 75.2064 13.5226L73.6971 8.91538C74.8622 8.41229 76.0802 8.00187 77.3511 7.68413C78.6221 7.36639 80.1579 7.20752 81.9584 7.20752C83.6265 7.20752 85.0497 7.41273 86.228 7.82314C87.4063 8.23356 88.3794 8.8227 89.1472 9.59057C89.9416 10.3849 90.5241 11.358 90.8948 12.5098C91.2655 13.6616 91.4509 14.9524 91.4509 16.3823V28.7344H85.6124V26.4308C84.871 27.2516 83.984 27.907 82.9513 28.3968C81.9187 28.8867 80.6609 29.1316 79.1782 29.1316Z" fill="#231916"/>
<path d="M103.842 29.0917C102.916 29.0917 102.075 28.9924 101.32 28.7939C100.566 28.5953 99.9169 28.2444 99.3741 27.7413C98.8313 27.2382 98.4077 26.5829 98.1032 25.7753C97.7987 24.9677 97.6464 23.9417 97.6464 22.6972V12.609H95.1045V7.44569H97.6464V2.00439H103.683V7.44569H108.688V12.609H103.683V21.7043C103.683 23.0812 104.332 23.7696 105.63 23.7696C106.689 23.7696 107.682 23.518 108.608 23.015V27.8605C107.973 28.2312 107.271 28.5291 106.503 28.7541C105.736 28.9792 104.849 29.0917 103.842 29.0917Z" fill="#231916"/>
<path d="M130.924 29.035C132.309 29.035 133.715 27.8978 133.715 26.0297V26.0072C133.715 24.1392 132.309 23.0257 130.924 23.0257C129.788 23.0257 129.056 23.689 128.561 24.4437V20.6851H128.01V28.9H128.561V27.6621C129.033 28.3823 129.776 29.035 130.924 29.035ZM130.868 28.5054C129.675 28.5054 128.527 27.5151 128.527 26.0416V26.0191C128.527 24.5562 129.675 23.554 130.868 23.554C132.072 23.554 133.119 24.5218 133.119 26.0297V26.0522C133.119 27.5946 132.117 28.5054 130.868 28.5054Z" fill="#2F2D2D"/>
<path d="M135.852 30.7335C136.674 30.7335 137.26 30.3058 137.765 29.1024L140.253 23.1606H139.645L137.575 28.2922L135.189 23.1606H134.547L137.305 28.8654C136.877 29.8676 136.482 30.2158 135.887 30.2158C135.459 30.2158 135.211 30.1483 134.907 30.0027L134.716 30.4859C135.099 30.6553 135.414 30.7335 135.852 30.7335Z" fill="#2F2D2D"/>
<path d="M111.428 24.0093H120.196V28.7343H111.428V24.0093Z" fill="#2F2D2D"/>
</svg>
