<svg width="78" height="79" viewBox="0 0 78 79" fill="none" xmlns="http://www.w3.org/2000/svg">
<g filter="url(#filter0_d_202_7594)">
<rect x="4" y="0.140625" width="70" height="70" rx="35" fill="url(#paint0_linear_202_7594)"/>
<g clip-path="url(#clip0_202_7594)">
<path d="M44.3992 25.6398C45.5992 24.2398 46.1992 22.4398 46.1992 20.6398C46.1992 16.3398 42.6992 12.8398 38.3992 12.8398C34.0992 12.8398 30.6992 16.3398 30.6992 20.6398C30.6992 24.9398 34.1992 28.4398 38.4992 28.4398C40.0992 28.4398 41.5992 27.9398 42.8992 27.0398L48.8992 33.0398L50.2992 31.6398L44.3992 25.6398ZM44.1992 20.6398C44.1992 23.8398 41.5992 26.4398 38.3992 26.4398C35.1992 26.4398 32.5992 23.8398 32.5992 20.6398C32.5992 17.4398 35.1992 14.8398 38.3992 14.8398C41.5992 14.8398 44.1992 17.4398 44.1992 20.6398Z" fill="white"/>
</g>
<path d="M20.346 52.0896V48.7616H17.382V48.0076H20.346V46.0836H17.941V45.3426H20.346V43.5486H17.681V42.8076H21.1C21.2993 42.4696 21.5073 42.0666 21.724 41.5986C21.9407 41.122 22.1227 40.6756 22.27 40.2596L23.05 40.5456C22.9113 40.9096 22.738 41.2953 22.53 41.7026C22.322 42.11 22.1183 42.4783 21.919 42.8076H24.077V43.5486H21.165V45.3426H23.648V46.0836H21.165V48.0076H24.376V48.7616H21.165V52.0896H20.346ZM13.3 51.6346V48.0856H16.81V51.6346H13.3ZM14.041 50.9326H16.069V48.8006H14.041V50.9326ZM12.637 43.4836V42.7686H17.33V43.4836H12.637ZM13.274 47.0326V46.3176H16.745V47.0326H13.274ZM13.274 45.2646V44.5496H16.745V45.2646H13.274ZM13.274 41.7156V41.0006H16.745V41.7156H13.274ZM19.41 42.7296C19.2627 42.3743 19.098 42.019 18.916 41.6636C18.734 41.2996 18.5347 40.953 18.318 40.6236L19.046 40.3116C19.2193 40.6063 19.4057 40.9443 19.605 41.3256C19.8043 41.707 19.9733 42.071 20.112 42.4176C20.0773 42.4263 20.008 42.4523 19.904 42.4956C19.8087 42.539 19.7133 42.5823 19.618 42.6256C19.5227 42.669 19.4533 42.7036 19.41 42.7296ZM31.841 51.3226V41.2866H37.574V51.3226H31.841ZM28.578 52.0766V46.4866C28.162 46.5213 27.759 46.556 27.369 46.5906C26.979 46.6253 26.6497 46.647 26.381 46.6556L26.264 45.9276C26.3853 45.9276 26.524 45.9276 26.68 45.9276C26.836 45.919 27.0007 45.9103 27.174 45.9016C27.356 45.7023 27.5553 45.4553 27.772 45.1606C27.9973 44.8573 28.2227 44.541 28.448 44.2116C28.2487 44.0383 28.019 43.8563 27.759 43.6656C27.5077 43.4663 27.252 43.2756 26.992 43.0936C26.732 42.903 26.4893 42.7383 26.264 42.5996L26.706 42.0146C26.81 42.0753 26.9183 42.1446 27.031 42.2226C27.1437 42.3006 27.2607 42.383 27.382 42.4696C27.5207 42.253 27.668 42.0103 27.824 41.7416C27.98 41.473 28.123 41.213 28.253 40.9616C28.383 40.7103 28.4783 40.5066 28.539 40.3506L29.228 40.6236C29.072 40.9703 28.8727 41.3516 28.63 41.7676C28.3873 42.175 28.1533 42.5433 27.928 42.8726C28.0927 42.994 28.253 43.1196 28.409 43.2496C28.565 43.371 28.7123 43.488 28.851 43.6006C29.111 43.1933 29.345 42.8076 29.553 42.4436C29.7697 42.0796 29.93 41.7893 30.034 41.5726L30.697 41.9236C30.4977 42.305 30.2463 42.7296 29.943 43.1976C29.6483 43.657 29.3363 44.1206 29.007 44.5886C28.6863 45.048 28.3743 45.4683 28.071 45.8496C28.4783 45.8323 28.8813 45.8106 29.28 45.7846C29.6787 45.75 30.0253 45.7153 30.32 45.6806C30.2073 45.4986 30.0947 45.3253 29.982 45.1606C29.878 44.996 29.7783 44.853 29.683 44.7316L30.281 44.3806C30.437 44.58 30.6017 44.814 30.775 45.0826C30.9483 45.3426 31.1173 45.6113 31.282 45.8886C31.4467 46.166 31.5853 46.426 31.698 46.6686C31.6633 46.686 31.5983 46.7206 31.503 46.7726C31.4163 46.8246 31.3253 46.8766 31.23 46.9286C31.1433 46.9806 31.0827 47.0196 31.048 47.0456C30.9873 46.9243 30.9223 46.7986 30.853 46.6686C30.7923 46.53 30.723 46.3913 30.645 46.2526C30.4717 46.2786 30.2723 46.3046 30.047 46.3306C29.8303 46.3566 29.6007 46.3826 29.358 46.4086V52.0766H28.578ZM35.065 50.5556H36.794V46.5646H35.065V50.5556ZM32.621 50.5556H34.324V46.5646H32.621V50.5556ZM35.065 45.7976H36.794V42.0536H35.065V45.7976ZM32.621 45.7976H34.324V42.0536H32.621V45.7976ZM26.927 50.7506C26.8923 50.7333 26.8273 50.703 26.732 50.6596C26.6367 50.6163 26.5457 50.5773 26.459 50.5426C26.3723 50.4993 26.3073 50.4776 26.264 50.4776C26.4287 50.235 26.589 49.923 26.745 49.5416C26.9097 49.1603 27.0527 48.7703 27.174 48.3716C27.304 47.9643 27.395 47.6003 27.447 47.2796L28.123 47.4226C28.0537 47.7866 27.9583 48.1723 27.837 48.5796C27.7157 48.9783 27.577 49.3683 27.421 49.7496C27.265 50.131 27.1003 50.4646 26.927 50.7506ZM30.866 50.2956C30.7793 50.1396 30.684 49.9316 30.58 49.6716C30.4847 49.4116 30.385 49.1386 30.281 48.8526C30.1857 48.558 30.0947 48.2763 30.008 48.0076C29.93 47.739 29.865 47.518 29.813 47.3446L30.463 47.1496C30.541 47.3923 30.6407 47.7 30.762 48.0726C30.8833 48.4366 31.0133 48.792 31.152 49.1386C31.2993 49.4853 31.4337 49.7626 31.555 49.9706C31.5117 49.9793 31.4423 50.0053 31.347 50.0486C31.2517 50.092 31.1563 50.1396 31.061 50.1916C30.9743 50.235 30.9093 50.2696 30.866 50.2956ZM43.999 52.1026C43.9817 52.0333 43.9297 51.9163 43.843 51.7516C43.7563 51.587 43.6913 51.4786 43.648 51.4266C44.6533 51.1753 45.442 50.8026 46.014 50.3086C46.586 49.806 46.9717 49.2036 47.171 48.5016H44.675V45.4986H47.353V44.3416H45.351V43.7436C45.1603 43.9083 44.9653 44.0686 44.766 44.2246C44.5667 44.372 44.363 44.5106 44.155 44.6406C44.1377 44.606 44.0857 44.5453 43.999 44.4586C43.921 44.3633 43.843 44.2723 43.765 44.1856C43.687 44.099 43.6307 44.0426 43.596 44.0166C43.726 43.9473 43.8473 43.8736 43.96 43.7956H42.673V44.5886C42.8203 44.7966 43.0023 45.0436 43.219 45.3296C43.4357 45.607 43.6567 45.8756 43.882 46.1356C44.116 46.387 44.3153 46.5863 44.48 46.7336C44.454 46.7596 44.3977 46.8116 44.311 46.8896C44.2243 46.9676 44.1377 47.05 44.051 47.1366C43.973 47.2146 43.9167 47.271 43.882 47.3056C43.7173 47.1323 43.5223 46.907 43.297 46.6296C43.0803 46.3436 42.8723 46.0533 42.673 45.7586V52.0896H41.88V45.7716C41.6547 46.3003 41.4033 46.816 41.126 47.3186C40.8487 47.8213 40.5757 48.259 40.307 48.6316C40.2723 48.6056 40.2073 48.5666 40.112 48.5146C40.0167 48.454 39.9213 48.3976 39.826 48.3456C39.7307 48.285 39.6613 48.246 39.618 48.2286C39.8433 47.9426 40.0687 47.6133 40.294 47.2406C40.528 46.8593 40.7447 46.465 40.944 46.0576C41.152 45.6503 41.334 45.2516 41.49 44.8616C41.6547 44.463 41.7803 44.1076 41.867 43.7956H39.904V43.0676H41.88V40.3116H42.673V43.0676H44.051V43.7306C44.5277 43.41 44.974 43.046 45.39 42.6386C45.8147 42.2226 46.1873 41.8023 46.508 41.3776C46.8287 40.953 47.08 40.5716 47.262 40.2336L48.029 40.3636C48.2283 40.6583 48.4797 40.966 48.783 41.2866C49.0863 41.6073 49.42 41.9236 49.784 42.2356C50.148 42.539 50.5163 42.8206 50.889 43.0806C51.2617 43.3406 51.617 43.5616 51.955 43.7436C51.9203 43.7696 51.8597 43.8303 51.773 43.9256C51.695 44.021 51.617 44.1163 51.539 44.2116C51.4697 44.307 51.422 44.3763 51.396 44.4196C50.98 44.1683 50.5337 43.8606 50.057 43.4966C49.5803 43.124 49.1253 42.7296 48.692 42.3136C48.2673 41.889 47.9163 41.4686 47.639 41.0526C47.3963 41.4513 47.0887 41.876 46.716 42.3266C46.352 42.7773 45.9447 43.2063 45.494 43.6136H50.057V44.3416H48.12V45.4986H50.863V48.5016H48.328C48.7093 49.1083 49.2077 49.6673 49.823 50.1786C50.4383 50.69 51.11 51.067 51.838 51.3096C51.8033 51.3443 51.7513 51.4093 51.682 51.5046C51.6127 51.6 51.5477 51.691 51.487 51.7776C51.4263 51.873 51.383 51.9423 51.357 51.9856C50.6117 51.6823 49.9313 51.2706 49.316 50.7506C48.7093 50.2306 48.2153 49.6326 47.834 48.9566C47.5653 49.7366 47.1103 50.3823 46.469 50.8936C45.8277 51.405 45.0043 51.808 43.999 52.1026ZM48.094 47.7866H50.083V46.2136H48.12V47.1236C48.12 47.2363 48.1157 47.349 48.107 47.4616C48.107 47.5743 48.1027 47.6826 48.094 47.7866ZM45.455 47.7866H47.314C47.34 47.5786 47.353 47.3576 47.353 47.1236V46.2136H45.455V47.7866ZM58.978 52.0896V48.8006C58.0333 48.8353 57.1103 48.8656 56.209 48.8916C55.3163 48.909 54.558 48.922 53.934 48.9306L53.83 48.1766C54.3153 48.1766 54.9307 48.1723 55.676 48.1636C56.43 48.1463 57.2143 48.129 58.029 48.1116C58.107 48.0423 58.1893 47.9686 58.276 47.8906C58.3627 47.804 58.4537 47.7173 58.549 47.6306C58.237 47.4226 57.8947 47.2103 57.522 46.9936C57.158 46.7683 56.7983 46.556 56.443 46.3566C56.0963 46.1486 55.793 45.9796 55.533 45.8496L55.962 45.2256C56.1093 45.3036 56.313 45.4206 56.573 45.5766C56.833 45.724 57.1103 45.8886 57.405 46.0706C57.5523 45.8973 57.7213 45.6936 57.912 45.4596C58.1027 45.217 58.2933 44.9656 58.484 44.7056C58.6747 44.4456 58.8393 44.203 58.978 43.9776L59.706 44.3806C59.55 44.5886 59.368 44.8226 59.16 45.0826C58.9607 45.334 58.7613 45.581 58.562 45.8236C58.3627 46.0663 58.1807 46.2743 58.016 46.4476C58.2153 46.569 58.406 46.6903 58.588 46.8116C58.7787 46.9243 58.9477 47.0283 59.095 47.1236C59.3983 46.8376 59.6973 46.5473 59.992 46.2526C60.2953 45.9493 60.5683 45.6676 60.811 45.4076C61.0623 45.139 61.253 44.9223 61.383 44.7576L62.072 45.1866C61.942 45.3426 61.76 45.5376 61.526 45.7716C61.3007 46.0056 61.0493 46.257 60.772 46.5256C60.4947 46.7943 60.2087 47.063 59.914 47.3316C59.628 47.6003 59.3593 47.8473 59.108 48.0726C59.8187 48.0553 60.499 48.0336 61.149 48.0076C61.799 47.9816 62.3537 47.96 62.813 47.9426C62.605 47.7433 62.4013 47.557 62.202 47.3836C62.0113 47.2103 61.838 47.0673 61.682 46.9546L62.228 46.4346C62.4273 46.582 62.657 46.7726 62.917 47.0066C63.177 47.232 63.437 47.4746 63.697 47.7346C63.957 47.986 64.1953 48.233 64.412 48.4756C64.6373 48.7096 64.815 48.9176 64.945 49.0996C64.919 49.1256 64.8627 49.1733 64.776 49.2426C64.698 49.312 64.62 49.3856 64.542 49.4636C64.464 49.533 64.4077 49.585 64.373 49.6196C64.269 49.481 64.1347 49.3206 63.97 49.1386C63.814 48.948 63.6363 48.753 63.437 48.5536C62.9257 48.597 62.358 48.636 61.734 48.6706C61.1187 48.7053 60.4817 48.74 59.823 48.7746V52.0896H58.978ZM53.973 45.6416V43.2366H58.978V42.1316H54.168V41.3906H58.978V40.2856H59.823V41.3906H64.685V42.1316H59.823V43.2366H64.88V45.6156H64.074V43.9256H54.779V45.6416H53.973ZM64.139 51.7776C63.7837 51.6303 63.398 51.4396 62.982 51.2056C62.566 50.9716 62.1673 50.7246 61.786 50.4646C61.4133 50.2046 61.097 49.9576 60.837 49.7236L61.357 49.1646C61.5997 49.39 61.916 49.6283 62.306 49.8796C62.696 50.131 63.099 50.3693 63.515 50.5946C63.931 50.8113 64.295 50.9803 64.607 51.1016C64.581 51.1276 64.5333 51.1883 64.464 51.2836C64.3947 51.379 64.3253 51.4743 64.256 51.5696C64.1953 51.665 64.1563 51.7343 64.139 51.7776ZM54.688 51.7646C54.6707 51.73 54.6273 51.665 54.558 51.5696C54.4973 51.4743 54.4323 51.379 54.363 51.2836C54.3023 51.1883 54.2547 51.1276 54.22 51.1016C54.532 50.9716 54.8917 50.7983 55.299 50.5816C55.715 50.365 56.1137 50.131 56.495 49.8796C56.885 49.6283 57.2013 49.39 57.444 49.1646L57.964 49.7236C57.7127 49.9576 57.3963 50.2046 57.015 50.4646C56.6337 50.7246 56.2393 50.9673 55.832 51.1926C55.4247 51.4266 55.0433 51.6173 54.688 51.7646Z" fill="white"/>
</g>
<defs>
<filter id="filter0_d_202_7594" x="0" y="0.140625" width="78" height="78" filterUnits="userSpaceOnUse" color-interpolation-filters="sRGB">
<feFlood flood-opacity="0" result="BackgroundImageFix"/>
<feColorMatrix in="SourceAlpha" type="matrix" values="0 0 0 0 0 0 0 0 0 0 0 0 0 0 0 0 0 0 127 0" result="hardAlpha"/>
<feOffset dy="4"/>
<feGaussianBlur stdDeviation="2"/>
<feComposite in2="hardAlpha" operator="out"/>
<feColorMatrix type="matrix" values="0 0 0 0 0 0 0 0 0 0 0 0 0 0 0 0 0 0 0.25 0"/>
<feBlend mode="normal" in2="BackgroundImageFix" result="effect1_dropShadow_202_7594"/>
<feBlend mode="normal" in="SourceGraphic" in2="effect1_dropShadow_202_7594" result="shape"/>
</filter>
<linearGradient id="paint0_linear_202_7594" x1="4" y1="0.140625" x2="86.3529" y2="20.7289" gradientUnits="userSpaceOnUse">
<stop stop-color="#F7CE6F"/>
<stop offset="1" stop-color="#FB7373"/>
</linearGradient>
<clipPath id="clip0_202_7594">
<rect width="24" height="24" fill="white" transform="translate(29 11.1406)"/>
</clipPath>
</defs>
</svg>
